<?xml version="1.0" encoding="UTF-8" standalone="no"?> <svg width="64" height="64" viewBox="0 0 64 64" fill="none" xmlns="http://www.w3.org/2000/svg">
<path d="M33 21C33.5304 21 34.0391 20.7893 34.4142 20.4142C34.7893 20.0391 35 19.5304 35 19C35 18.4696 34.7893 17.9609 34.4142 17.5858C34.0391 17.2107 33.5304 17 33 17H31V25H33C33.5304 25 34.0391 24.7893 34.4142 24.4142C34.7893 24.0391 35 23.5304 35 23C35 22.4696 34.7893 21.9609 34.4142 21.5858C34.0391 21.2107 33.5304 21 33 21Z" fill="#E9C46A"/>
<path d="M52.1394 46.5L44.7094 33.5H19.2894L11.8594 46.5H52.1394Z" fill="#F4A261"/>
<path d="M50.4291 41.5L53.4291 46.75C53.4729 46.826 53.496 46.9122 53.496 47C53.496 47.0878 53.4729 47.174 53.4291 47.25C53.3871 47.327 53.3248 47.391 53.249 47.435C53.1732 47.4791 53.0867 47.5016 52.9991 47.5H40.2891L44.2891 54.5H61.1391L53.7091 41.5H50.4291Z" fill="#F4A261"/>
<path d="M10.9994 47.5C10.9117 47.5016 10.8253 47.4791 10.7495 47.435C10.6737 47.391 10.6114 47.327 10.5694 47.25C10.5255 47.174 10.5024 47.0878 10.5024 47C10.5024 46.9122 10.5255 46.826 10.5694 46.75L13.5694 41.5H10.2894L2.85938 54.5H43.1394L39.1394 47.5H10.9994Z" fill="#E9C46A"/>
<path d="M33 16V15H31V16C30.7348 16 30.4804 16.1054 30.2929 16.2929C30.1054 16.4804 30 16.7348 30 17V25C30 25.2652 30.1054 25.5196 30.2929 25.7071C30.4804 25.8946 30.7348 26 31 26V27H33V26C33.7956 26 34.5587 25.6839 35.1213 25.1213C35.6839 24.5587 36 23.7956 36 23C35.9983 22.2613 35.7242 21.5491 35.23 21C35.7242 20.4509 35.9983 19.7387 36 19C36 18.2044 35.6839 17.4413 35.1213 16.8787C34.5587 16.3161 33.7956 16 33 16V16ZM33 22C33.2652 22 33.5196 22.1054 33.7071 22.2929C33.8946 22.4804 34 22.7348 34 23C34 23.2652 33.8946 23.5196 33.7071 23.7071C33.5196 23.8946 33.2652 24 33 24H32V18H33C33.2652 18 33.5196 18.1054 33.7071 18.2929C33.8946 18.4804 34 18.7348 34 19C34 19.2652 33.8946 19.5196 33.7071 19.7071C33.5196 19.8946 33.2652 20 33 20C32.7348 20 32.4804 20.1054 32.2929 20.2929C32.1054 20.4804 32 20.7348 32 21C32 21.2652 32.1054 21.5196 32.2929 21.7071C32.4804 21.8946 32.7348 22 33 22Z" fill="black"/>
<path d="M33 9H31V13H33V9Z" fill="black"/>
<path d="M44 20H40V22H44V20Z" fill="black"/>
<path d="M24 20H20V22H24V20Z" fill="black"/>
<path d="M39.7737 11.8122L36.9453 14.6406L38.3595 16.0548L41.188 13.2264L39.7737 11.8122Z" fill="black"/>
<path d="M25.6331 25.9489L22.8047 28.7773L24.2189 30.1916L27.0473 27.3631L25.6331 25.9489Z" fill="black"/>
<path d="M38.3576 25.95L36.9434 27.3643L39.7718 30.1927L41.186 28.7785L38.3576 25.95Z" fill="black"/>
<path d="M24.2209 11.8104L22.8066 13.2246L25.6351 16.053L27.0493 14.6388L24.2209 11.8104Z" fill="black"/>
<path d="M54.8701 40.5C54.782 40.3474 54.6551 40.2208 54.5023 40.133C54.3495 40.0452 54.1763 39.9993 54.0001 40H50.1501L45.8701 32.5C45.782 32.3474 45.6551 32.2208 45.5023 32.133C45.3495 32.0452 45.1763 31.9993 45.0001 32H33.0001V29H31.0001V32H19.0001C18.8239 31.9993 18.6506 32.0452 18.4978 32.133C18.345 32.2208 18.2182 32.3474 18.1301 32.5L13.8501 40H10.0001C9.82386 39.9993 9.65059 40.0452 9.49782 40.133C9.34504 40.2208 9.21817 40.3474 9.13007 40.5L1.13007 54.5C1.0423 54.652 0.996094 54.8245 0.996094 55C0.996094 55.1755 1.0423 55.348 1.13007 55.5C1.21817 55.6526 1.34504 55.7792 1.49781 55.867C1.65059 55.9548 1.82386 56.0007 2.00007 56H62.0001C62.1763 56.0007 62.3495 55.9548 62.5023 55.867C62.6551 55.7792 62.782 55.6526 62.8701 55.5C62.9578 55.348 63.004 55.1755 63.004 55C63.004 54.8245 62.9578 54.652 62.8701 54.5L54.8701 40.5ZM19.5801 34H44.4201L51.2801 46H12.7201L19.5801 34ZM3.72007 54L10.5801 42H12.7101L10.1301 46.5C10.0423 46.652 9.99609 46.8245 9.99609 47C9.99609 47.1755 10.0423 47.348 10.1301 47.5C10.2182 47.6526 10.345 47.7792 10.4978 47.867C10.6506 47.9548 10.8239 48.0007 11.0001 48H38.8501L42.2801 54H3.72007ZM44.5801 54L41.1501 48H53.0001C53.1763 48.0007 53.3495 47.9548 53.5023 47.867C53.6551 47.7792 53.782 47.6526 53.8701 47.5C53.9578 47.348 54.004 47.1755 54.004 47C54.004 46.8245 53.9578 46.652 53.8701 46.5L51.2901 42H53.4201L60.2801 54H44.5801Z" fill="black"/>
</svg>
